<svg class="icon" viewBox="0 0 1024 1024" xmlns="http://www.w3.org/2000/svg" width="200" height="200"><defs><style/></defs><path d="M512 1024c-107.664 0-192-224.896-192-512S404.336 0 512 0s192 224.896 192 512-84.336 512-192 512zm0-992c-77.28 0-160 192.88-160 480s82.72 480 160 480 160-192.88 160-480S589.28 32 512 32z"/><path d="M676.48 704H347.52a16 16 0 0 1 0-32h328.96a16 16 0 0 1 0 32zm4-320H343.52a16 16 0 0 1 0-32h336.96a16 16 0 0 1 0 32zm-489.44 96.96a16 16 0 0 1-11.312-27.312l240.96-240.96a16 16 0 1 1 22.624 22.624l-240.96 240.96a15.952 15.952 0 0 1-11.312 4.688z"/><path d="M129.76 624a15.952 15.952 0 0 1-11.328-4.688l-81.744-81.76a16 16 0 0 1 0-22.608L98 453.616A73.344 73.344 0 0 1 150.192 432c19.712 0 38.24 7.68 52.192 21.616a73.904 73.904 0 0 1 0 104.384l-61.328 61.312A15.952 15.952 0 0 1 129.76 624zm-59.136-97.76l59.12 59.136 50.016-50a41.872 41.872 0 0 0 0-59.136c-15.792-15.776-43.328-15.792-59.136 0l-50 50.016zM191.04 784.96a16 16 0 0 1-11.312-27.312l240.96-240.96a16 16 0 1 1 22.624 22.624l-240.96 240.96a15.952 15.952 0 0 1-11.312 4.688z"/><path d="M129.76 928a15.952 15.952 0 0 1-11.328-4.688l-81.744-81.76a16 16 0 0 1 0-22.608L98 757.616A73.344 73.344 0 0 1 150.192 736c19.712 0 38.24 7.68 52.192 21.616a73.904 73.904 0 0 1 0 104.384l-61.328 61.312A15.952 15.952 0 0 1 129.76 928zm-59.136-97.76l59.12 59.136 50.016-50a41.872 41.872 0 0 0 0-59.136c-15.792-15.776-43.328-15.776-59.136 0l-50 50.016zM832.96 480.96a15.952 15.952 0 0 1-11.312-4.688l-240.96-240.96a16 16 0 1 1 22.624-22.624l240.96 240.96a16 16 0 0 1-11.312 27.312z"/><path d="M894.24 624a15.952 15.952 0 0 1-11.296-4.688L821.616 558a73.904 73.904 0 0 1 0-104.384A73.344 73.344 0 0 1 873.808 432c19.712 0 38.24 7.68 52.192 21.616l61.312 61.328a16 16 0 0 1 0 22.624l-81.76 81.744A15.952 15.952 0 0 1 894.256 624zm-20.432-160c-11.168 0-21.664 4.352-29.568 12.24a41.872 41.872 0 0 0 0 59.136l50.016 50 59.12-59.12-50-50.016A41.568 41.568 0 0 0 873.808 464zM832.96 784.96a15.952 15.952 0 0 1-11.312-4.688l-240.96-240.96a16 16 0 1 1 22.624-22.624l240.96 240.96a16 16 0 0 1-11.312 27.312z"/><path d="M894.24 928a15.952 15.952 0 0 1-11.296-4.688L821.616 862a73.904 73.904 0 0 1 0-104.384A73.344 73.344 0 0 1 873.808 736c19.712 0 38.24 7.68 52.192 21.616l61.312 61.328a16 16 0 0 1 0 22.624l-81.76 81.744A15.952 15.952 0 0 1 894.256 928zm-20.432-160c-11.168 0-21.664 4.352-29.568 12.24a41.872 41.872 0 0 0 0 59.136l50.016 50 59.12-59.12-50-50.016A41.568 41.568 0 0 0 873.808 768zM512 960c-4.16 0-8.32-1.76-11.36-4.64-2.88-3.04-4.64-7.2-4.64-11.36 0-4.16 1.76-8.32 4.64-11.36 5.92-5.92 16.8-5.92 22.72 0 2.88 3.04 4.64 7.2 4.64 11.36 0 4.16-1.76 8.32-4.64 11.36-3.04 2.88-7.04 4.64-11.36 4.64zm0-64c-4.16 0-8.32-1.76-11.36-4.64-2.88-3.04-4.64-7.2-4.64-11.36 0-4.16 1.76-8.32 4.64-11.36 6.08-5.92 16.64-5.92 22.72 0 2.88 3.04 4.64 7.2 4.64 11.36 0 4.16-1.76 8.32-4.64 11.36-3.04 2.88-7.2 4.64-11.36 4.64zm64 0c-4.16 0-8.32-1.76-11.36-4.64-2.88-3.04-4.64-7.2-4.64-11.36 0-4.16 1.76-8.32 4.64-11.36 6.08-5.92 16.64-5.92 22.72 0 2.88 3.04 4.64 7.2 4.64 11.36 0 4.16-1.76 8.32-4.64 11.36-3.04 2.88-7.2 4.64-11.36 4.64zm-128 0c-4.16 0-8.32-1.76-11.36-4.64-2.88-3.04-4.64-7.2-4.64-11.36 0-4.16 1.76-8.32 4.64-11.36 6.08-5.92 16.8-5.92 22.72 0 2.88 3.04 4.64 7.2 4.64 11.36 0 4.16-1.76 8.32-4.64 11.36-3.04 2.88-7.2 4.64-11.36 4.64zm64-64c-4.16 0-8.32-1.76-11.36-4.64-2.88-3.04-4.64-7.2-4.64-11.36 0-4.16 1.76-8.32 4.64-11.36 5.92-5.92 16.8-5.92 22.72 0 2.88 3.04 4.64 7.2 4.64 11.36 0 4.16-1.76 8.32-4.64 11.36-3.04 2.88-7.2 4.64-11.36 4.64zm64 0c-4.16 0-8.32-1.76-11.36-4.64-2.88-3.04-4.64-7.2-4.64-11.36 0-4.16 1.76-8.32 4.64-11.36 5.92-5.92 16.64-5.92 22.72 0 2.88 3.04 4.64 7.2 4.64 11.36 0 4.16-1.76 8.32-4.64 11.36-3.04 2.88-7.2 4.64-11.36 4.64zm-128 0c-4.16 0-8.32-1.76-11.36-4.64-2.88-3.04-4.64-7.2-4.64-11.36 0-4.16 1.76-8.32 4.64-11.36 5.92-5.92 16.8-5.92 22.72 0 2.88 3.04 4.64 7.2 4.64 11.36 0 4.16-1.76 8.32-4.64 11.36-3.04 2.88-7.2 4.64-11.36 4.64zm64-64c-4.32 0-8.32-1.76-11.36-4.64-2.88-3.04-4.64-7.2-4.64-11.36 0-4.16 1.76-8.32 4.64-11.36 5.92-5.92 16.8-5.92 22.72 0 2.88 3.04 4.64 7.2 4.64 11.36 0 4.16-1.76 8.32-4.64 11.36-3.04 2.88-7.2 4.64-11.36 4.64zm64 0c-4.16 0-8.32-1.76-11.36-4.64-2.88-3.04-4.64-7.2-4.64-11.36 0-4.16 1.76-8.32 4.64-11.36 6.08-5.92 16.8-5.92 22.72 0 2.88 3.04 4.64 7.2 4.64 11.36 0 4.16-1.76 8.32-4.64 11.36-3.04 2.88-7.2 4.64-11.36 4.64zm-128 0c-4.32 0-8.32-1.76-11.36-4.64-2.88-3.04-4.64-7.2-4.64-11.36 0-4.16 1.76-8.32 4.64-11.36 5.92-5.92 16.8-5.92 22.72 0 2.88 3.04 4.64 7.2 4.64 11.36 0 4.16-1.76 8.32-4.64 11.36-3.04 2.88-7.2 4.64-11.36 4.64zM240 240a16 16 0 0 1-16-16v-48a16 16 0 0 1 32 0v48a16 16 0 0 1-16 16zm64-48a16 16 0 0 1-16-16v-48a16 16 0 0 1 32 0v48a16 16 0 0 1-16 16zm400-96a16 16 0 0 1-16-16V32a16 16 0 0 1 32 0v48a16 16 0 0 1-16 16zm64 48a16 16 0 0 1-16-16V80a16 16 0 0 1 32 0v48a16 16 0 0 1-16 16zm0 48c-4.16 0-8.32-1.76-11.36-4.64-2.88-3.04-4.64-7.2-4.64-11.36 0-4.16 1.76-8.32 4.64-11.36 5.92-5.92 16.8-5.92 22.72.16 2.88 2.88 4.64 7.04 4.64 11.2 0 4.16-1.76 8.32-4.64 11.36-3.04 2.88-7.2 4.64-11.36 4.64zm-528 96c-4.16 0-8.32-1.76-11.36-4.64-2.88-3.04-4.64-7.2-4.64-11.36 0-4.16 1.76-8.32 4.64-11.36 6.08-5.92 16.64-5.92 22.72 0 2.88 3.04 4.64 7.2 4.64 11.36 0 4.16-1.76 8.32-4.64 11.36-3.04 2.88-7.2 4.64-11.36 4.64z"/></svg>