<svg class="icon" viewBox="0 0 1024 1024" xmlns="http://www.w3.org/2000/svg" width="128" height="128"><defs><style/></defs><path d="M1018.906 119.933c0 33.12-26.85 59.968-59.967 59.968H62.247c-33.117 0-59.969-26.849-59.969-59.968 0-33.12 26.852-59.97 59.97-59.97h896.69c33.119 0 59.968 26.85 59.968 59.97zm-.061 390.857c0 33.122-26.85 59.97-59.968 59.97H62.185c-33.119 0-59.97-26.849-59.97-59.97 0-33.12 26.851-59.969 59.97-59.969h896.692c33.12-.001 59.968 26.849 59.968 59.968zm0 390.608c0 33.121-26.85 59.971-59.968 59.971H62.185c-33.119 0-59.97-26.85-59.97-59.97 0-33.119 26.851-59.969 59.97-59.969h896.692c33.12 0 59.968 26.85 59.968 59.968z"/></svg>