<svg class="icon" viewBox="0 0 1024 1024" xmlns="http://www.w3.org/2000/svg" width="128" height="128"><defs><style/></defs><path d="M981.675 368.185c-25.714-60.757-62.464-115.257-109.227-162.02-46.763-46.762-101.262-83.513-162.02-109.226C647.51 70.315 580.836 56.889 512 56.889s-135.51 13.426-198.428 40.05c-60.758 25.713-115.257 62.464-162.02 109.226-46.763 46.763-83.513 101.263-109.227 162.02-26.624 62.919-40.05 129.593-40.05 198.428 0 150.983 66.333 293.206 181.931 390.372l1.934 1.593c6.6 5.461 14.905 8.533 23.439 8.533h604.956c8.533 0 16.84-3.072 23.438-8.533l1.935-1.593c115.484-97.166 181.816-239.389 181.816-390.372 0-68.835-13.54-135.509-40.05-198.428zM795.762 880.64H228.238c-88.86-80.213-139.491-193.877-139.491-314.027 0-113.095 44.032-219.363 124.017-299.235C292.75 187.392 399.02 143.36 512 143.36c113.095 0 219.364 44.032 299.236 124.018 79.985 79.986 124.017 186.254 124.017 299.235 0 120.15-50.63 233.814-139.491 314.027z"/><path d="M638.862 409.031c-3.527-3.527-9.33-3.527-12.857 0l-96.142 96.142c-21.276-5.689-44.828-.227-61.554 16.498-24.917 24.917-24.917 65.195 0 90.112 24.918 24.917 65.195 24.917 90.112 0 16.726-16.725 22.187-40.277 16.498-61.554l96.142-96.142c3.527-3.527 3.527-9.33 0-12.857l-32.199-32.199zM486.97 293.547h50.062c5.006 0 9.102-4.096 9.102-9.103v-91.022c0-5.006-4.096-9.102-9.102-9.102H486.97c-5.006 0-9.102 4.096-9.102 9.102v91.022c0 5.007 4.096 9.103 9.102 9.103zm295.82 248.035v50.062c0 5.007 4.096 9.103 9.102 9.103h91.023c5.006 0 9.102-4.096 9.102-9.103v-50.062c0-5.006-4.096-9.102-9.102-9.102h-91.023c-5.006 0-9.102 4.096-9.102 9.102zm14.45-224.37l-35.385-35.384c-3.527-3.528-9.33-3.528-12.857 0L684.6 346.226c-3.527 3.527-3.527 9.33 0 12.857l35.385 35.385c3.527 3.527 9.33 3.527 12.857 0l64.398-64.399c3.527-3.527 3.527-9.33 0-12.857zm-521.785-35.384c-3.527-3.528-9.33-3.528-12.857 0l-35.385 35.384c-3.527 3.528-3.527 9.33 0 12.857l64.398 64.399c3.528 3.527 9.33 3.527 12.857 0l35.385-35.385c3.527-3.527 3.527-9.33 0-12.857l-64.398-64.398zm-47.9 250.652h-91.023c-5.006 0-9.102 4.096-9.102 9.102v50.062c0 5.007 4.096 9.103 9.102 9.103h91.023c5.006 0 9.102-4.096 9.102-9.103v-50.062c0-5.006-4.096-9.102-9.102-9.102z"/></svg>