<svg class="icon" viewBox="0 0 1024 1024" xmlns="http://www.w3.org/2000/svg" width="128" height="128"><defs><style/></defs><path d="M995.118 533.005H890.092v462.113c0 12.603-8.402 21.005-21.005 21.005H659.036c-12.603 0-21.005-8.402-21.005-21.005V638.03H385.969v357.087c0 12.603-8.402 21.005-21.005 21.005H154.913c-12.603 0-21.005-8.402-21.005-21.005V533.005H28.882c-8.402 0-16.804-4.2-18.905-12.603-4.2-8.402-2.1-16.804 4.201-23.106L497.296 14.178c8.402-8.402 23.106-8.402 29.408 0l483.118 483.118c6.301 6.302 6.301 14.704 4.2 23.106s-10.502 12.603-18.904 12.603z"/></svg>