<svg class="icon" viewBox="0 0 1024 1024" xmlns="http://www.w3.org/2000/svg" width="200" height="200"><defs><style/></defs><path d="M12.678 246.735h440.808v608.549H110.202c-53.86 0-97.524-43.664-97.524-97.524V246.735z"/><path d="M157.013 363.764h62.416c15.082 0 27.306 12.227 27.306 27.306v3.901c0 15.082-12.227 27.307-27.306 27.307h-62.416c-15.082 0-27.306-12.225-27.306-27.307v-3.9c0-15.08 12.224-27.307 27.306-27.307zm0 117.028h62.416c15.082 0 27.306 12.227 27.306 27.307V512c0 15.082-12.227 27.307-27.306 27.307h-62.416c-15.082 0-27.306-12.225-27.306-27.307v-3.901c0-15.08 12.224-27.307 27.306-27.307zm0 117.029h62.416c15.082 0 27.306 12.227 27.306 27.307v3.9c0 15.083-12.227 27.307-27.306 27.307h-62.416c-15.082 0-27.306-12.224-27.306-27.306v-3.901c0-15.08 12.224-27.307 27.306-27.307zm0 117.029h62.416c15.082 0 27.306 12.227 27.306 27.309v3.9c0 15.083-12.227 27.305-27.306 27.305h-62.416c-15.082 0-27.306-12.225-27.306-27.304v-3.901c0-15.082 12.224-27.31 27.306-27.31zm175.543 0h62.415c15.082 0 27.307 12.227 27.307 27.309v3.9c0 15.083-12.227 27.305-27.307 27.305h-62.415c-15.082 0-27.306-12.225-27.306-27.304v-3.901c0-15.082 12.224-27.31 27.306-27.31zm0-117.029h62.415c15.082 0 27.307 12.227 27.307 27.307v3.9c0 15.083-12.227 27.307-27.307 27.307h-62.415c-15.082 0-27.306-12.224-27.306-27.306v-3.901c0-15.08 12.224-27.307 27.306-27.307zm0-117.029h62.415c15.082 0 27.307 12.227 27.307 27.307V512c0 15.082-12.227 27.307-27.307 27.307h-62.415c-15.082 0-27.306-12.225-27.306-27.307v-3.901c0-15.08 12.224-27.307 27.306-27.307zm0-117.028h62.415c15.082 0 27.307 12.227 27.307 27.306v3.901c0 15.082-12.227 27.307-27.307 27.307h-62.415c-15.082 0-27.306-12.225-27.306-27.307v-3.9c0-15.08 12.224-27.307 27.306-27.307zm120.93-117.029h440.807V757.76c0 53.86-43.664 97.524-97.523 97.524H453.486V246.735z"/><path d="M453.486 71.192H796.77c53.86 0 97.523 43.664 97.523 97.524v78.02H453.486V71.191zm-343.284 0h343.284v175.543H12.678v-78.019c0-53.86 43.664-97.524 97.524-97.524z"/><path d="M186.27 12.678h3.901c14.005 0 25.357 11.352 25.357 25.356v124.83c0 14.005-11.352 25.357-25.357 25.357h-3.9c-14.005 0-25.357-11.352-25.357-25.356V38.035c0-14.005 11.352-25.357 25.356-25.357zm175.543 0h3.901c14.005 0 25.356 11.352 25.356 25.356v124.83c0 14.005-11.351 25.357-25.356 25.357h-3.9c-14.005 0-25.357-11.352-25.357-25.356V38.035c0-14.005 11.352-25.357 25.356-25.357zm175.543 0h3.901c14.005 0 25.356 11.352 25.356 25.356v124.83c0 14.005-11.351 25.357-25.356 25.357h-3.9c-14.005 0-25.357-11.352-25.357-25.356V38.035c0-14.005 11.352-25.357 25.356-25.357zm175.543 0h3.901c14.004 0 25.356 11.352 25.356 25.356v124.83c0 14.005-11.352 25.357-25.356 25.357h-3.901c-14.004 0-25.356-11.352-25.356-25.356V38.035c0-14.005 11.352-25.357 25.356-25.357zM512 363.764h62.415c15.082 0 27.307 12.227 27.307 27.306v3.901c0 15.082-12.227 27.307-27.307 27.307H512c-15.082 0-27.307-12.225-27.307-27.307v-3.9c0-15.08 12.225-27.307 27.307-27.307zm0 117.028h62.415c15.082 0 27.307 12.227 27.307 27.307V512c0 15.082-12.227 27.307-27.307 27.307H512c-15.082 0-27.307-12.225-27.307-27.307v-3.901c0-15.08 12.225-27.307 27.307-27.307zm175.543-117.028h62.415c15.082 0 27.307 12.227 27.307 27.306v3.901c0 15.082-12.227 27.307-27.307 27.307h-62.415c-15.082 0-27.307-12.225-27.307-27.307v-3.9c0-15.08 12.225-27.307 27.307-27.307zm58.687 117.028c-.095 0 0 265.265 0 265.265s-.173 265.265 0 265.265c146.405 0 265.092-118.765 265.092-265.265 0-146.503-118.687-265.265-265.092-265.265z"/><path d="M746.15 480.792c.095 0 0 265.265 0 265.265s.173 265.265 0 265.265c-146.405 0-265.092-118.765-265.092-265.265 0-146.503 118.687-265.265 265.092-265.265z"/><path d="M746.172 535.406c.075 0 0 210.651 0 210.651s.139 210.652 0 210.652c-116.339 0-210.652-94.316-210.652-210.652 0-116.34 94.31-210.651 210.652-210.651z"/><path d="M746.196 535.406c-.075 0 0 210.651 0 210.651s-.139 210.652 0 210.652c116.263 0 210.515-94.316 210.515-210.652-.002-116.34-94.252-210.651-210.515-210.651z"/><path d="M746.057 601.722h3.901c15.082 0 27.307 12.227 27.307 27.307v120.93c0 15.081-12.227 27.306-27.307 27.306h-3.9c-15.083 0-27.308-12.227-27.308-27.307v-120.93c0-15.079 12.225-27.306 27.307-27.306z"/><path d="M866.987 718.75h-89.722v-89.72c0-15.082-12.227-27.307-27.307-27.307h-3.9v175.543h120.929c15.082 0 27.306-12.227 27.306-27.307v-3.9c0-15.08-12.224-27.308-27.306-27.308z"/></svg>