<svg class="icon" viewBox="0 0 1024 1024" xmlns="http://www.w3.org/2000/svg" width="128" height="128"><defs><style/></defs><path d="M856.282 751.316a6.007 6.007 0 1 0 12.015 0 6.007 6.007 0 0 0-12.015 0zM723.845 887.958a11.906 11.906 0 1 0 23.866 0 11.906 11.906 0 0 0-23.866 0zM545.37 958.246a17.913 17.913 0 1 0 35.88 0 17.913 17.913 0 0 0-35.88 0zm-192.13-9.34a23.866 23.866 0 1 0 47.732 0 23.866 23.866 0 0 0-47.732 0zm-170.394-87.49a29.873 29.873 0 1 0 59.693 0 29.873 29.873 0 0 0-59.747 0zM64.717 712.704a35.881 35.881 0 1 0 71.707 0 35.881 35.881 0 0 0-71.707 0zM20.48 530.132a41.78 41.78 0 1 0 83.558 0 41.78 41.78 0 0 0-83.558 0zm36.427-181.426a47.787 47.787 0 1 0 95.573 0 47.787 47.787 0 0 0-95.573 0zm109.39-146.254a53.794 53.794 0 1 0 107.589 0 53.794 53.794 0 0 0-107.588 0zm160.564-83.668a59.692 59.692 0 1 0 119.385 0 59.692 59.692 0 0 0-119.44 0zm180.278-5.243a65.7 65.7 0 1 0 131.455 0 65.7 65.7 0 0 0-131.455 0zm165.097 74.274a71.653 71.653 0 1 0 143.305 0 71.653 71.653 0 0 0-143.305 0zM789.6 327.352a77.66 77.66 0 1 0 155.265 0 77.66 77.66 0 0 0-155.265 0zm46.64 180.77a83.613 83.613 0 1 0 167.28 0 83.613 83.613 0 0 0-167.28 0z"/></svg>