<svg class="icon" viewBox="0 0 1024 1024" xmlns="http://www.w3.org/2000/svg" width="128" height="128"><defs><style/></defs><path d="M208.924 306.186a303.06 303.06 0 1 0 606.121 0 303.06 303.06 0 1 0-606.122 0zm307.702 488.831a275.784 275.784 0 0 1 15.616-90.939c-6.731.383-13.43.894-20.258.894a349.432 349.432 0 0 1-222.522-79.598 31.026 31.026 0 0 0-32.876-3.972C104.154 694.045 1.555 835.152 1.555 1024h636.334a276.502 276.502 0 0 1-121.247-228.967zm331.151-10.304a53.788 53.788 0 0 1 29.51-47.854H679.362a47.854 47.854 0 0 0 0 95.708h197.91a53.772 53.772 0 0 1-29.495-47.854z"/><path d="M901.757 845.87a61.158 61.158 0 1 1 61.158-61.157 61.237 61.237 0 0 1-61.158 61.158zm0-107.959a46.801 46.801 0 1 0 46.801 46.818 46.85 46.85 0 0 0-46.801-46.802zm24.47-48.907H679.361a47.854 47.854 0 0 1 0-95.708h246.864a47.854 47.854 0 0 1 0 95.708zm1.323 287.126H680.686a47.854 47.854 0 0 1 0-95.709h246.848a47.854 47.854 0 0 1 0 95.709z"/></svg>