<svg class="icon" viewBox="0 0 1024 1024" xmlns="http://www.w3.org/2000/svg" width="128" height="128"><defs><style/></defs><path d="M716.445 757.674c-23.975 36.211-48.337 71.98-71.703 108.8a94.128 94.128 0 0 0-11.074 77.517c11.572 42.413 39.921 68.99 83.054 76.853s79.012-8.029 104.371-44.295c22.923-33.222 45.071-66.444 67.55-99.665 1.164-1.717 2.05-3.6 2.825-4.983L718.549 756.234a12.846 12.846 0 0 0-2.104 1.44zm289.084-140.805c-14.397-40.142-43.687-64.67-86.044-70.097s-75.303 11.074-99.167 45.901q-33.221 48.78-66.11 97.782c-1.496 2.16-2.77 4.43-3.323 5.537l171.313 116.83c25.636-38.04 51.272-74.417 75.136-111.957a92.854 92.854 0 0 0 8.195-83.996zM262.583 438.137a256.692 256.692 0 1 0-55.37-83.054 257.357 257.357 0 0 0 55.37 83.054zm172.033 155.699A422.634 422.634 0 0 0 11.982 1016.47v7.53h555.243a355.692 355.692 0 0 1 62.512-382.491 420.807 420.807 0 0 0-195.121-47.673zm15.005 287.92h-80.064v80.064h-97.34v-80.064h-80.174v-97.45h80.174v-80.064h97.45v80.064H449.4z"/></svg>