<svg class="icon" viewBox="0 0 1024 1024" xmlns="http://www.w3.org/2000/svg" width="128" height="128"><defs><style/></defs><path d="M511.967 1024a49.562 49.562 0 0 0-4.71-1.911C404.242 982.562 68.234 826.573 68.234 478.618V178.995C289.28 178.927 509.782 1.775 511.967 0 514.152 1.775 730.42 178.995 955.7 178.995v299.623a489.95 489.95 0 0 1-69.017 253.405A613.65 613.65 0 0 1 734.72 900.78 810.871 810.871 0 0 1 511.967 1024zm-3.277-766.225a109.705 109.705 0 1 0 0 219.409 183.91 183.91 0 0 0-184.934 182.818c0 52.02 95.573 75.776 184.934 75.776s184.935-23.688 184.935-75.776a184.32 184.32 0 0 0-184.32-182.818 109.705 109.705 0 1 0 0-219.41z"/></svg>