<svg class="icon" viewBox="0 0 1024 1024" xmlns="http://www.w3.org/2000/svg" width="64" height="64"><defs><style/></defs><path d="M969.387 416.427c20.48-13.654 27.306-34.134 20.48-68.267 0 0-20.48-54.613-40.96-88.747-20.48-34.133-54.614-81.92-61.44-81.92-20.48-20.48-40.96-27.306-61.44-20.48H819.2c-61.44 34.134-143.36 13.654-177.493-47.786-6.827-13.654-13.654-47.787-13.654-47.787 0-27.307-20.48-47.787-47.786-47.787h-143.36c-6.827 0-13.654 6.827-20.48 6.827-27.307 13.653-34.134 27.307-40.96 40.96-6.827 20.48-27.307 81.92-61.44 102.4-34.134 20.48-95.574 6.827-116.054 0-20.48 0-40.96 0-54.613 6.827l-20.48 20.48-75.093 129.706c-13.654 20.48-6.827 54.614 13.653 68.267 0 0 20.48 20.48 34.133 40.96 34.134 61.44 13.654 143.36-47.786 177.493H40.96c-13.653 13.654-20.48 40.96-6.827 68.267 0 0 20.48 54.613 40.96 88.747 20.48 34.133 54.614 81.92 61.44 81.92 20.48 20.48 40.96 27.306 61.44 20.48h6.827c61.44-34.134 143.36-13.654 177.493 47.786 13.654 20.48 13.654 47.787 13.654 47.787 0 27.307 27.306 47.787 54.613 54.613h143.36c6.827 0 13.653-6.826 20.48-6.826 13.653-6.827 27.307-27.307 34.133-40.96 6.827-20.48 27.307-88.747 61.44-102.4 34.134-20.48 102.4-6.827 122.88 0 13.654 6.826 34.134 0 54.614-6.827 6.826-6.827 13.653-6.827 20.48-13.653l75.093-122.88c13.653-27.307 6.827-54.614-20.48-75.094 0 0-20.48-20.48-34.133-40.96-40.96-75.093-20.48-157.013 40.96-191.146zM614.4 689.493c-95.573 54.614-225.28 20.48-279.893-75.093-54.614-95.573-20.48-225.28 75.093-279.893s225.28-20.48 279.893 75.093c54.614 95.573 20.48 225.28-75.093 279.893z"/></svg>