<svg class="icon" viewBox="0 0 1024 1024" xmlns="http://www.w3.org/2000/svg" width="200" height="200"><defs><style/></defs><path d="M945.664 259.072L688.64 0H132.608a56.158 56.158 0 0 0-56.32 56.32v911.36a56.158 56.158 0 0 0 56.32 56.32H890.88a56.158 56.158 0 0 0 56.32-56.32V257.024c.512 1.024-.512 2.048-1.536 2.048zm-247.296 494.08H325.632c-17.408 0-31.232-12.288-31.232-27.136s13.824-27.136 31.232-27.136h372.736c17.408 0 31.232 12.288 31.232 27.136 0 15.36-13.824 27.136-31.232 27.136zm0-162.304H325.632c-17.408 0-31.232-12.288-31.232-27.136s13.824-27.136 31.232-27.136h372.736c17.408 0 31.232 12.288 31.232 27.136 0 15.36-13.824 27.136-31.232 27.136zM715.264 294.4a56.158 56.158 0 0 1-56.32-56.32V37.376c0-1.024 1.024-2.048 2.048-2.048L918.016 294.4H715.264z"/></svg>