<svg class="icon" viewBox="0 0 1024 1024" xmlns="http://www.w3.org/2000/svg" width="128" height="128"><defs><style/></defs><path d="M1009.103 512c0-274.572-222.531-497.103-497.103-497.103S14.897 237.428 14.897 512 237.428 1009.103 512 1009.103c112.754 0 215.929-38.319 299.297-101.492 3.366-3.884 5.696-8.803 5.696-14.37 0-12.168-9.838-22.007-22.007-22.007-6.343 0-11.91 2.46-15.923 6.732h-.388c-74.566 54.888-166.478 87.77-266.157 87.77-248.552 0-450.111-201.56-450.111-450.24 0-248.682 201.56-450.112 450.11-450.112 248.682 0 450.112 201.56 450.112 450.111 0 75.99-17.865 147.448-51.005 210.233v.389c-.647 2.07-1.295 4.142-1.295 6.343 0 12.169 9.839 22.007 22.008 22.007 9.45 0 17.476-6.084 20.453-14.499v.13c35.47-68.352 56.313-145.765 56.313-228.098zM706.569 663.72"/><path d="M508.246 543.069c-16.44.13-24.726-9.71-24.726-29.386-.13-20.195 8.156-30.422 24.467-30.551l280.915-2.33c9.45-.13 16.181 2.718 20.065 8.414s5.955 12.946 5.955 21.748c0 8.803-1.812 15.923-5.437 21.36s-10.486 8.285-20.324 8.285l-280.915 2.46z"/><path d="M480.931 169.336c-.13-20.066 9.71-30.034 29.386-30.163 20.195-.13 30.422 9.838 30.551 29.774l2.2 342.276c.13 11.522-2.718 19.677-8.414 24.467-5.696 4.79-12.945 7.25-21.748 7.25s-15.923-2.201-21.49-6.603c-5.436-4.53-8.284-12.686-8.284-24.725l-2.2-342.276z"/></svg>